<svg xmlns="http://www.w3.org/2000/svg" xmlns:xlink="http://www.w3.org/1999/xlink" width="56" height="39" viewBox="0 0 56 39"><defs><path id="iv5ga" d="M971.24 1508.465c-1.431 3.953-4.768 6.933-9.235 8.033v6.252a1.247 1.247 0 0 1-1.25 1.249c-.208 0-.415-.052-.602-.154l-11.404-6.249h-3.783c-7.034 0-12.975-6.22-12.975-13.585v-2.342c0-7.061 5.82-12.805 12.975-12.805h5.66v2.498h-5.66c-5.776 0-10.474 4.624-10.474 10.307v2.342c0 5.906 4.894 11.087 10.474 11.087h4.103c.21 0 .417.053.602.153l9.833 5.389v-5.155c0-.607.436-1.126 1.035-1.23 3.772-.66 6.618-2.792 8.014-5.79zm3.097-1.882h-19.155a2.684 2.684 0 0 1-2.68-2.688v-16.206c0-1.485 1.2-2.689 2.68-2.689h19.155c1.48 0 2.68 1.204 2.68 2.689v16.206c0 1.485-1.2 2.688-2.68 2.688zm13.66-2.443l-8.48-5.672v-5.352l8.48-5.672z"/></defs><g><g transform="translate(-932 -1485)"><use fill="#fff" xlink:href="#iv5ga"/></g></g></svg>